<svg xmlns="http://www.w3.org/2000/svg" width="231" height="38.861" viewBox="0 0 231 38.861"><defs><style>.a{fill:#fff;fill-rule:evenodd;}</style></defs><g transform="translate(49.222 7.156)"><path class="a" d="M158.711,88.373h-8.748l1.77,1.611v16.785h-6.67v-18.4h-7V82.587h20.645v5.786Zm-27.016,16.4a9.089,9.089,0,0,1-5.978,2.172,12.21,12.21,0,0,1-4.5-.827,10.709,10.709,0,0,1-3.768-2.441,11.847,11.847,0,0,1-2.557-3.921,13.437,13.437,0,0,1-.961-5.286,11.524,11.524,0,0,1,.961-4.748,11.738,11.738,0,0,1,2.634-3.825,12.557,12.557,0,0,1,3.941-2.556,12.931,12.931,0,0,1,4.9-.923,13.855,13.855,0,0,1,3.133.346,11.479,11.479,0,0,1,2.787,1.057A10.754,10.754,0,0,1,134.6,85.49,8.092,8.092,0,0,1,136.27,87.7l-4.94,3.768A5.99,5.99,0,0,0,126.12,88.3a5.07,5.07,0,0,0-2.172.48,5.265,5.265,0,0,0-1.711,1.326,6.349,6.349,0,0,0-1.134,2.038,7.867,7.867,0,0,0-.4,2.576,7.786,7.786,0,0,0,.4,2.576,5.689,5.689,0,0,0,1.153,2,5.1,5.1,0,0,0,1.749,1.307,5.845,5.845,0,0,0,2.288.442,6.8,6.8,0,0,0,5.132-2.384h-4.21V93.89h9.976v12.879h-3.728l-1.77-2ZM105.512,97.6l-2.153-7.5-2.268,7.5Zm-5.19-15.013H106.4l8.4,24.182H108.03l-1.461-4.729H98.341l1.3,1.6-.971,3.133h-6.8l8.458-24.182Z" transform="translate(-91.864 -82.402)"/><path class="a" d="M263.869,104.68v2.1H247.51V82.573h16.058v2.1H249.782v8.717H261.84v2.046H249.782v9.243ZM226.3,86.884v19.9h-2.271V82.573h1.726l16.193,20.273V82.573h2.29v24.21h-2.008l-15.93-19.9Zm-7.25,19.9V82.573h2.271v24.21Zm-18.846,0V82.573h2.29V104.68h14.144v2.1Zm-20.48-19.9v19.9h-2.29V82.573h1.726l16.193,20.273V82.573h2.29v24.21h-1.989Zm-25.175,7.794V94.8l0,.123,0,.123,0,.123.006.122.007.122.008.122.01.121.011.121.012.121.014.12.015.12.016.12.018.12.019.119.02.119.022.118.023.118.025.118.026.118.027.117.028.117.03.117.031.117.033.116.034.116.035.116.037.116.038.115.039.116.041.115.042.116.086.231.089.225.093.221.1.218.1.214.106.211.111.208.115.2.119.2.124.2.129.195.133.192.138.188.142.186.147.183.151.18.152.172.156.168.16.163.164.159.168.155.171.151.175.146.179.142.183.138.187.134.191.129.194.125.2.121.2.117.206.112.21.108.1.049.1.049.106.047.106.046.107.044.108.043.109.041.109.04.11.038.111.037.111.035.112.033.113.032.113.03.114.029.114.027.115.025.116.024.117.022.117.021.118.019.118.018.119.016.119.014.12.013.121.011.121.009.122.008.123.006.123,0,.124,0h.253l.129,0,.128,0,.127-.006.126-.008.126-.009.125-.011.124-.013.123-.015.122-.016.121-.018.121-.019.119-.021.119-.023.118-.025.117-.026.116-.028.116-.03.115-.031.114-.033.113-.035.112-.036.111-.038.11-.04.109-.042.109-.043.108-.045.107-.046.106-.048.105-.05.1-.052.1-.053.207-.112.2-.116.2-.12.195-.124.191-.129.187-.133.183-.138.179-.142.175-.146.172-.151.168-.155.164-.16.16-.165.156-.169.153-.174.15-.179.146-.181.141-.183.138-.187.134-.19.13-.193.126-.2.122-.2.118-.2.114-.206.11-.209.105-.212.1-.214.1-.217.093-.22L172,98.6l.084-.224.038-.111.038-.114.037-.114.035-.114.034-.115.033-.115.032-.115.031-.114.029-.115.028-.115.027-.116.026-.115.025-.115.023-.116.022-.116.021-.115.019-.116.018-.116.017-.116.016-.116.015-.116.013-.116.012-.117.011-.116.01-.117.008-.117.007-.116.006-.116,0-.117,0-.117,0-.117v-.24l0-.123,0-.124,0-.123-.006-.123-.007-.122-.008-.122-.01-.122-.011-.122-.012-.121-.014-.121-.015-.121-.016-.12-.018-.12-.019-.12-.02-.119-.022-.119-.023-.119-.025-.118-.026-.118-.027-.117-.028-.117-.03-.117-.031-.116-.032-.116-.034-.116-.035-.115-.036-.115-.038-.114-.039-.114-.041-.114-.042-.113-.089-.23-.092-.225-.1-.221-.1-.218-.1-.215-.109-.211-.113-.208-.117-.2-.121-.2-.125-.2-.129-.2-.133-.192-.137-.189-.141-.186-.145-.183-.147-.177L170,87.447l-.159-.168-.162-.164-.165-.159-.168-.155-.171-.151L169,86.5l-.178-.142-.181-.138-.184-.133-.188-.13-.191-.125-.2-.121-.2-.117-.2-.112-.208-.109-.1-.052-.1-.05-.1-.048-.1-.046-.1-.045-.105-.043-.106-.042-.106-.04-.107-.038-.108-.037-.108-.035L166,84.866l-.11-.032-.11-.03-.111-.028-.112-.027-.113-.025-.113-.023-.114-.022-.115-.02-.116-.019-.116-.017-.117-.015-.118-.014-.119-.012-.119-.01-.12-.009-.121-.007-.122-.006-.123,0-.124,0h-.252l-.127,0-.127,0-.126.006-.125.008-.124.01-.123.011-.123.013-.122.014-.121.016-.121.018-.12.02-.119.021-.119.023-.118.025-.118.026-.116.028-.116.03-.115.031-.114.033-.114.035-.113.036-.112.038-.111.04-.11.041-.11.043-.109.045-.109.047-.108.048-.107.05-.106.052-.1.053-.207.111-.2.116-.2.12-.2.125-.193.129-.189.133-.186.138-.182.142-.178.146-.174.151-.171.156-.167.16-.163.165-.16.169-.156.174-.153.18-.149.18-.144.183-.14.186-.136.19-.131.193-.127.2-.122.2-.118.2-.113.205-.109.208-.1.211-.1.214-.1.217-.091.22-.086.222-.082.228-.041.114-.039.114-.038.114-.037.114-.035.114-.034.114-.033.114-.032.114-.03.114-.029.114-.028.115-.026.115-.025.115-.024.115-.023.115-.021.115-.02.115-.019.115-.017.116-.016.116-.015.116-.014.116-.012.116-.011.117-.009.117-.008.117-.007.117-.006.117,0,.118,0,.118,0,.118v.118Zm9.1,12.274h-.158l-.157,0-.156-.005-.156-.007-.155-.009-.154-.011-.153-.013-.153-.015-.151-.018-.151-.019-.15-.022-.149-.024-.148-.026-.147-.028-.146-.03-.146-.032-.145-.034-.144-.036-.143-.038-.142-.04-.141-.043-.14-.045-.14-.047-.139-.049-.138-.051-.136-.053-.136-.055-.135-.058-.134-.06-.133-.062-.132-.064-.13-.065-.258-.132-.256-.138-.251-.143-.247-.149-.242-.154-.237-.159-.232-.165-.228-.17-.222-.175-.218-.18-.213-.186-.209-.19-.2-.2-.2-.2-.194-.205-.19-.21-.094-.108-.092-.108-.09-.109-.089-.11-.088-.111-.086-.112-.085-.113-.084-.114-.082-.115-.081-.116-.08-.117-.079-.118-.077-.119-.076-.12-.074-.121-.074-.122-.072-.123-.071-.124-.069-.125-.068-.126-.067-.127-.065-.128-.064-.129-.063-.13-.062-.131-.06-.132-.059-.133-.058-.134-.056-.135-.055-.136-.054-.137-.053-.14-.05-.14-.048-.139-.046-.139-.045-.139-.043-.14-.042-.14-.04-.14-.039-.14-.037-.141-.035-.14-.034-.141-.032-.141-.031-.141-.029-.141-.027-.141-.026-.142-.024-.142-.023-.142-.021-.142-.02-.142-.018-.143-.017-.142-.015-.143-.013-.143-.012-.143-.01-.143-.008-.143-.007-.143-.005-.144,0-.144,0-.144v-.3l0-.15,0-.15.006-.15.008-.15.009-.149.011-.149.013-.148.015-.148.016-.147.018-.147.019-.146.021-.146.023-.145.025-.145.026-.145.028-.145.03-.144.031-.144.033-.143.035-.143.036-.142.038-.142.04-.142.042-.142.043-.141.045-.141.046-.14.048-.14.05-.14.052-.139.053-.139.055-.138.056-.137.057-.136.059-.135.06-.134.061-.133.063-.132.064-.131.065-.13.066-.129.068-.128.069-.127.07-.126.072-.125.073-.124.074-.123.076-.122.076-.121.078-.12.079-.119.08-.118.082-.117.083-.116.084-.115.085-.114.086-.113.087-.112.088-.111.09-.11.091-.109.092-.108.094-.108.194-.211.2-.2.2-.2.206-.194.211-.189.215-.183.219-.178.223-.173.228-.167.233-.162.237-.156.242-.151.247-.145.251-.14.256-.135.259-.128.131-.063.132-.06.132-.059.133-.056.134-.055.134-.052.135-.05.136-.048.136-.046.137-.044.138-.042.138-.04.139-.038.14-.036.14-.034.141-.032.142-.03.143-.028.143-.026.144-.024.144-.022.145-.02.146-.019.146-.016.147-.015.148-.013.148-.011.149-.009.15-.007.15,0,.151,0h.309l.157,0,.157,0,.156.007.155.009.154.012.153.013.153.016.152.017.151.02.15.022.149.024.148.026.148.028.147.03.146.033.145.035.144.037.143.039.143.041.142.043.141.046.14.048.14.05.138.052.138.054.137.057.137.059.135.061.135.063.134.066.132.067.259.135.256.142.251.147.247.152.242.158.237.163.232.168.227.173.222.179.218.184.213.189.209.194.2.2.2.2.194.209.19.215.093.11.09.109.089.11.088.111.086.112.085.113.084.114.083.115.081.116.08.117.079.118.078.119.076.12.075.121.074.121.073.123.071.123.07.124.069.125.068.126.066.127.065.128.064.129.063.13.061.131.06.132.059.133.058.134.056.135.055.136.054.137.053.139.05.138.048.137.046.137.045.137.043.137.042.137.04.138.039.138.037.138.036.138.034.138.032.138.031.138.029.139.027.138.026.139.024.139.023.139.021.139.02.139.018.139.017.139.015.14.014.14.012.14.01.14.009.14.007.14.005.14,0,.14,0,.14v.293l0,.152,0,.152-.006.152-.008.151-.009.151-.011.15-.013.15-.015.149-.016.149-.018.148-.019.148-.021.148-.023.147-.024.146-.026.146-.028.146-.03.145-.031.145-.033.145-.035.144-.036.143-.038.143-.04.143-.042.142-.043.142-.045.141-.046.141-.048.14-.05.14-.051.139-.053.139-.055.138-.056.137-.057.136-.059.135-.06.134-.061.133-.063.131-.064.131-.066.129-.066.128-.068.127-.069.126-.071.125-.071.124-.073.123-.074.122-.076.121-.076.12-.078.119-.079.118-.081.117-.081.116-.082.115-.084.114-.085.113-.086.112-.087.111-.088.11-.09.109-.09.108-.092.107-.1.11-.2.208-.2.2-.2.2-.207.192-.211.186-.216.182-.22.176-.224.172-.229.166-.233.161-.237.156-.241.151-.245.145-.249.14-.254.134-.257.129-.132.063-.132.06-.132.058-.133.056-.134.054-.134.052-.135.05-.136.048-.137.046-.137.044-.138.042-.138.04-.139.038-.139.036-.14.034-.141.032-.142.03-.142.028-.143.026-.144.025-.145.022-.145.02-.145.018-.146.017-.147.015-.147.013-.148.011-.149.009-.149.007-.15,0-.15,0h-.152Z" transform="translate(-82.091 -82.404)"/></g><path class="a" d="M67.245,107.593H54.764V95.112H67.245Z" transform="translate(-48.644 -73.191)"/><path class="a" d="M79.631,82.955V97.079H65.507V82.955Z" transform="translate(-46.906 -75.158)"/><path class="a" d="M68.632,105.828H77.7v-9.07h-9.07Z" transform="translate(-46.401 -72.925)"/><path class="a" d="M64.854,87.117H53.98V76.244H64.854Z" transform="translate(-48.771 -76.244)"/><path class="a" d="M83.554,91.218v4.2h-4.2v-4.2Z" transform="translate(-44.666 -73.821)"/><path class="a" d="M72.188,77.4v4.2h-4.2V77.4Z" transform="translate(-46.505 -76.058)"/><path class="a" d="M71.716,106.077v4.2h-4.2v-4.2Z" transform="translate(-46.581 -71.417)"/><path class="a" d="M54.132,88.987v4.636H49.5V88.987Z" transform="translate(-49.496 -74.182)"/></svg>